<svg xmlns="http://www.w3.org/2000/svg" width="110" height="70" viewBox="0 0 110 70"><rect width="100%" height="100%" fill="#DDDDDD"/><path fill="#999999" d="M27.535 39.575h2.21v1.57h-6.8v-1.57h2.49v-7.17q0-.42.02-.87l-1.77 1.48q-.15.11-.3.14t-.28.01q-.13-.03-.23-.09t-.15-.14l-.67-.91 3.75-3.19h1.73zm9.86 0h2.21v1.57h-6.8v-1.57h2.49v-7.17q0-.42.02-.87l-1.77 1.48q-.15.11-.3.14t-.28.01q-.13-.03-.23-.09t-.15-.14l-.67-.91 3.75-3.19h1.73zm12.7-4.58q0 1.61-.34 2.8-.34 1.18-.95 1.96-.61.77-1.44 1.15t-1.79.38-1.78-.38-1.42-1.15q-.61-.78-.95-1.96-.34-1.19-.34-2.8t.34-2.79.95-1.96q.6-.77 1.42-1.15t1.78-.38 1.79.38 1.44 1.15q.61.78.95 1.96t.34 2.79m-2.16 0q0-1.33-.2-2.21-.19-.87-.52-1.39t-.75-.73q-.43-.2-.89-.2-.45 0-.87.2-.42.21-.74.73-.33.52-.52 1.39-.19.88-.19 2.21 0 1.34.19 2.21.19.88.52 1.4.32.52.74.73.42.2.87.2.46 0 .89-.2.42-.21.75-.73t.52-1.4q.2-.87.2-2.21m15.66 3.34-1.11 1.09-2.88-2.88-2.91 2.9-1.11-1.1 2.9-2.91-2.77-2.77 1.11-1.11 2.77 2.77 2.75-2.75 1.12 1.1-2.76 2.77zm5.84-9.48h8.49v.91q0 .41-.08.66-.09.25-.17.42l-4.66 9.59q-.14.29-.41.5-.26.21-.7.21h-1.53l4.76-9.39q.16-.29.32-.53.15-.25.35-.47h-5.88q-.2 0-.34-.14-.15-.15-.15-.34zm18.51 6.14q0 1.61-.35 2.8-.34 1.18-.95 1.96-.61.77-1.44 1.15t-1.79.38-1.78-.38-1.42-1.15q-.6-.78-.94-1.96-.34-1.19-.34-2.8t.34-2.79.94-1.96q.6-.77 1.42-1.15t1.78-.38 1.79.38 1.44 1.15q.61.78.95 1.96.35 1.18.35 2.79m-2.17 0q0-1.33-.2-2.21-.19-.87-.52-1.39t-.75-.73q-.43-.2-.89-.2-.45 0-.87.2-.42.21-.74.73t-.52 1.39q-.19.88-.19 2.21 0 1.34.19 2.21.2.88.52 1.4t.74.73q.42.2.87.2.46 0 .89-.2.42-.21.75-.73t.52-1.4q.2-.87.2-2.21"/></svg>