<svg xmlns="http://www.w3.org/2000/svg" width="1300" height="400" viewBox="0 0 1300 400"><rect width="100%" height="100%" fill="#DDDDDD"/><path fill="#999999" d="M314.055 241.16h19.89v14.15h-61.2v-14.15h22.41v-64.49q0-3.83.23-7.88l-15.91 13.31q-1.38 1.07-2.72 1.34-1.33.27-2.52.04t-2.1-.81q-.92-.57-1.38-1.26l-5.97-8.18 33.74-28.69h15.53zm47.66-63.88-9.95-1.76q1.15-7.96 4.44-13.96 3.29-6.01 8.22-10.02 4.94-4.02 11.33-6.05 6.38-2.02 13.73-2.02 7.65 0 13.81 2.18 6.15 2.18 10.51 6.04t6.7 9.07q2.33 5.2 2.33 11.24 0 5.28-1.18 9.3-1.19 4.01-3.41 7-2.22 2.98-5.51 5.05-3.29 2.06-7.42 3.44 9.95 3.13 14.84 9.56 4.9 6.43 4.9 16.14 0 8.26-3.06 14.61t-8.26 10.67q-5.2 4.33-12.05 6.55-6.85 2.21-14.5 2.21-8.34 0-14.53-1.91-6.2-1.91-10.79-5.66t-7.8-9.18q-3.22-5.43-5.51-12.55l8.34-3.44q3.29-1.37 6.16-.72t4.17 3.09q1.37 2.68 3.02 5.28 1.64 2.6 3.94 4.63 2.29 2.03 5.39 3.29t7.38 1.26q4.82 0 8.42-1.57 3.59-1.56 6-4.09 2.41-2.52 3.6-5.62 1.18-3.1 1.18-6.24 0-3.97-.84-7.23-.84-3.25-3.52-5.54-2.67-2.3-7.68-3.6-5.02-1.3-13.43-1.3v-13.46q6.96-.08 11.55-1.3 4.59-1.23 7.31-3.41 2.71-2.18 3.78-5.24 1.08-3.06 1.08-6.73 0-7.8-4.37-11.86-4.36-4.05-11.62-4.05-3.37 0-6.2.96-2.83.95-5.09 2.67-2.25 1.72-3.78 4.02-1.53 2.29-2.3 5.05-1.3 3.52-3.4 4.66-2.11 1.15-5.93.54M517.165 200q0 14.46-3.1 25.13t-8.57 17.63q-5.47 6.97-12.93 10.37t-16.1 3.4q-8.65 0-16.03-3.4t-12.81-10.37q-5.43-6.96-8.49-17.63t-3.06-25.13q0-14.53 3.06-25.17 3.06-10.63 8.49-17.59t12.81-10.37q7.38-3.4 16.03-3.4 8.64 0 16.1 3.4 7.46 3.41 12.93 10.37t8.57 17.59q3.1 10.64 3.1 25.17m-19.51 0q0-12.01-1.76-19.89t-4.71-12.55q-2.94-4.66-6.77-6.54-3.82-1.87-7.95-1.87-4.06 0-7.84 1.87-3.79 1.88-6.7 6.54-2.9 4.67-4.63 12.55-1.72 7.88-1.72 19.89t1.72 19.89q1.73 7.88 4.63 12.55 2.91 4.66 6.7 6.54 3.78 1.87 7.84 1.87 4.13 0 7.95-1.87 3.83-1.88 6.77-6.54 2.95-4.67 4.71-12.55t1.76-19.89m108.25 0q0 14.46-3.1 25.13t-8.57 17.63q-5.47 6.97-12.93 10.37t-16.1 3.4q-8.65 0-16.03-3.4t-12.81-10.37q-5.43-6.96-8.49-17.63t-3.06-25.13q0-14.53 3.06-25.17 3.06-10.63 8.49-17.59t12.81-10.37q7.38-3.4 16.03-3.4 8.64 0 16.1 3.4 7.46 3.41 12.93 10.37t8.57 17.59q3.1 10.64 3.1 25.17m-19.51 0q0-12.01-1.76-19.89t-4.71-12.55q-2.94-4.66-6.77-6.54-3.82-1.87-7.95-1.87-4.06 0-7.84 1.87-3.79 1.88-6.7 6.54-2.9 4.67-4.63 12.55-1.72 7.88-1.72 19.89t1.72 19.89q1.73 7.88 4.63 12.55 2.91 4.66 6.7 6.54 3.78 1.87 7.84 1.87 4.13 0 7.95-1.87 3.83-1.88 6.77-6.54 2.95-4.67 4.71-12.55t1.76-19.89m140.99 29.99-10.02 9.87-25.94-25.94-26.16 26.09-10.02-9.87 26.16-26.24-24.94-24.94 9.95-9.94 24.94 24.94 24.78-24.79 10.1 9.95-24.86 24.86zm66.25-16.37h33.66v-36.19q0-5.12.69-11.32zm50.1 0h13.93v10.94q0 1.53-1 2.64-.99 1.11-2.83 1.11h-10.1v27h-16.44v-27h-46.67q-1.91 0-3.36-1.19-1.46-1.19-1.84-2.95l-1.99-9.56 52.4-70h17.9zM946.475 200q0 14.46-3.09 25.13-3.1 10.67-8.57 17.63-5.47 6.97-12.93 10.37t-16.1 3.4q-8.65 0-16.03-3.4t-12.81-10.37q-5.44-6.96-8.5-17.63t-3.06-25.13q0-14.53 3.06-25.17 3.06-10.63 8.5-17.59 5.43-6.96 12.81-10.37 7.38-3.4 16.03-3.4 8.64 0 16.1 3.4 7.46 3.41 12.93 10.37t8.57 17.59q3.09 10.64 3.09 25.17m-19.5 0q0-12.01-1.76-19.89t-4.71-12.55q-2.94-4.66-6.77-6.54-3.82-1.87-7.95-1.87-4.06 0-7.85 1.87-3.78 1.88-6.69 6.54-2.91 4.67-4.63 12.55t-1.72 19.89 1.72 19.89 4.63 12.55q2.91 4.66 6.69 6.54 3.79 1.87 7.85 1.87 4.13 0 7.95-1.87 3.83-1.88 6.77-6.54 2.95-4.67 4.71-12.55t1.76-19.89m108.24 0q0 14.46-3.09 25.13-3.1 10.67-8.57 17.63-5.47 6.97-12.93 10.37t-16.1 3.4q-8.65 0-16.03-3.4t-12.81-10.37q-5.44-6.96-8.5-17.63t-3.06-25.13q0-14.53 3.06-25.17 3.06-10.63 8.5-17.59 5.43-6.96 12.81-10.37 7.38-3.4 16.03-3.4 8.64 0 16.1 3.4 7.46 3.41 12.93 10.37t8.57 17.59q3.09 10.64 3.09 25.17m-19.5 0q0-12.01-1.76-19.89t-4.71-12.55q-2.94-4.66-6.77-6.54-3.82-1.87-7.95-1.87-4.06 0-7.85 1.87-3.78 1.88-6.69 6.54-2.91 4.67-4.63 12.55t-1.72 19.89 1.72 19.89 4.63 12.55q2.91 4.66 6.69 6.54 3.79 1.87 7.85 1.87 4.13 0 7.95-1.87 3.83-1.88 6.77-6.54 2.95-4.67 4.71-12.55t1.76-19.89"/></svg>