<svg xmlns="http://www.w3.org/2000/svg" width="188" height="188" viewBox="0 0 188 188"><rect width="100%" height="100%" fill="#DDDDDD"/><path fill="#999999" d="M46.53 100.73h3.25v2.31h-10v-2.31h3.66V90.19q0-.63.04-1.29l-2.6 2.18q-.22.17-.44.22-.22.04-.41 0-.2-.04-.35-.13t-.22-.21l-.98-1.33 5.51-4.69h2.54zm12.06.1q.77 0 1.34-.22.58-.22.97-.61t.59-.92q.2-.54.2-1.17 0-1.48-.82-2.25-.83-.76-2.28-.76t-2.27.76q-.83.77-.83 2.25 0 .63.2 1.17.2.53.6.92.39.39.97.61.57.22 1.33.22m0-13.74q-.68 0-1.18.21t-.83.57q-.34.36-.49.82-.16.46-.16.97 0 .54.13 1.05.13.5.45.9.31.39.82.63t1.26.24 1.27-.24q.51-.24.82-.63.31-.4.45-.9.13-.51.13-1.05 0-.51-.17-.97-.16-.46-.48-.82-.33-.36-.83-.57t-1.19-.21m3.05 6.52q1.65.54 2.44 1.65.79 1.1.79 2.7 0 1.2-.46 2.18-.45.97-1.28 1.66-.82.69-1.98 1.06-1.16.38-2.56.38t-2.55-.38q-1.16-.37-1.98-1.06-.83-.69-1.28-1.66-.46-.98-.46-2.18 0-1.6.79-2.7.78-1.11 2.43-1.65-1.31-.55-1.96-1.56-.66-1.01-.66-2.44 0-1.02.42-1.91t1.17-1.54q.75-.66 1.79-1.03t2.29-.37 2.3.37q1.04.37 1.79 1.03.75.65 1.17 1.54t.42 1.91q0 1.43-.66 2.44-.65 1.01-1.97 1.56m11.45 7.22q.77 0 1.34-.22.58-.22.97-.61t.59-.92q.2-.54.2-1.17 0-1.48-.82-2.25-.83-.76-2.28-.76t-2.27.76q-.83.77-.83 2.25 0 .63.2 1.17.2.53.6.92.39.39.97.61.57.22 1.33.22m0-13.74q-.68 0-1.18.21t-.83.57q-.34.36-.49.82-.16.46-.16.97 0 .54.13 1.05.13.5.45.9.31.39.82.63t1.26.24 1.27-.24q.51-.24.82-.63.31-.4.45-.9.13-.51.13-1.05 0-.51-.17-.97-.16-.46-.48-.82-.33-.36-.83-.57t-1.19-.21m3.05 6.52q1.65.54 2.44 1.65.79 1.1.79 2.7 0 1.2-.46 2.18-.45.97-1.28 1.66-.82.69-1.98 1.06-1.16.38-2.56.38t-2.55-.38q-1.16-.37-1.98-1.06-.83-.69-1.28-1.66-.46-.98-.46-2.18 0-1.6.79-2.7.78-1.11 2.43-1.65-1.31-.55-1.96-1.56-.66-1.01-.66-2.44 0-1.02.42-1.91t1.17-1.54q.75-.66 1.79-1.03t2.29-.37 2.3.37q1.04.37 1.79 1.03.75.65 1.17 1.54t.42 1.91q0 1.43-.66 2.44-.65 1.01-1.97 1.56m23.43 5.29-1.64 1.61-4.24-4.23-4.27 4.26-1.64-1.61 4.28-4.29-4.08-4.08 1.63-1.62 4.07 4.07 4.05-4.05 1.65 1.63-4.06 4.06zm17.11 1.83h3.25v2.31h-10v-2.31h3.66V90.19q0-.63.04-1.29l-2.6 2.18q-.22.17-.44.22-.22.04-.41 0-.2-.04-.35-.13t-.22-.21l-.98-1.33 5.51-4.69h2.54zm12.06.1q.77 0 1.34-.22.58-.22.97-.61t.59-.92q.2-.54.2-1.17 0-1.48-.82-2.25-.83-.76-2.28-.76-1.44 0-2.27.76-.83.77-.83 2.25 0 .63.2 1.17.2.53.6.92.39.39.97.61.57.22 1.33.22m0-13.74q-.68 0-1.18.21t-.83.57q-.34.36-.49.82-.16.46-.16.97 0 .54.13 1.05.13.5.45.9.31.39.82.63t1.26.24 1.27-.24q.51-.24.82-.63.31-.4.45-.9.13-.51.13-1.05 0-.51-.17-.97-.16-.46-.48-.82-.33-.36-.83-.57t-1.19-.21m3.06 6.52q1.64.54 2.43 1.65.79 1.1.79 2.7 0 1.2-.46 2.18-.45.97-1.28 1.66-.82.69-1.98 1.06-1.16.38-2.56.38t-2.55-.38q-1.16-.37-1.98-1.06-.83-.69-1.28-1.66-.46-.98-.46-2.18 0-1.6.79-2.7.78-1.11 2.43-1.65-1.31-.55-1.96-1.56-.66-1.01-.66-2.44 0-1.02.42-1.91t1.17-1.54q.75-.66 1.79-1.03t2.29-.37 2.3.37q1.04.37 1.79 1.03.75.65 1.17 1.54t.42 1.91q0 1.43-.66 2.44-.65 1.01-1.96 1.56m11.44 7.22q.77 0 1.34-.22.58-.22.97-.61t.59-.92q.2-.54.2-1.17 0-1.48-.82-2.25-.83-.76-2.28-.76-1.44 0-2.27.76-.83.77-.83 2.25 0 .63.2 1.17.2.53.6.92.39.39.97.61.57.22 1.33.22m0-13.74q-.68 0-1.18.21t-.83.57q-.34.36-.49.82-.16.46-.16.97 0 .54.13 1.05.13.5.45.9.31.39.82.63t1.26.24 1.27-.24q.51-.24.82-.63.31-.4.45-.9.13-.51.13-1.05 0-.51-.17-.97-.16-.46-.48-.82-.33-.36-.83-.57t-1.19-.21m3.06 6.52q1.64.54 2.43 1.65.79 1.1.79 2.7 0 1.2-.46 2.18-.45.97-1.28 1.66-.82.69-1.98 1.06-1.16.38-2.56.38t-2.55-.38q-1.16-.37-1.98-1.06-.83-.69-1.28-1.66-.46-.98-.46-2.18 0-1.6.79-2.7.78-1.11 2.43-1.65-1.31-.55-1.96-1.56-.66-1.01-.66-2.44 0-1.02.42-1.91t1.17-1.54q.75-.66 1.79-1.03t2.29-.37 2.3.37q1.04.37 1.79 1.03.75.65 1.17 1.54t.42 1.91q0 1.43-.66 2.44-.65 1.01-1.96 1.56"/></svg>