<svg xmlns="http://www.w3.org/2000/svg" width="250" height="30" viewBox="0 0 250 30"><rect width="100%" height="100%" fill="#DDDDDD"/><path fill="#999999" d="M99.73 18.7h2.78q.3 0 .48.16.18.17.18.45v1.11h-7.44v-.61q0-.19.07-.4.08-.2.26-.37l3.29-3.3q.41-.42.74-.8.32-.39.54-.76t.33-.76q.12-.39.12-.81 0-.4-.11-.69-.11-.3-.32-.5t-.5-.3q-.28-.1-.64-.1-.33 0-.62.09-.28.09-.49.26-.22.17-.37.4-.15.22-.23.49-.12.35-.33.46-.2.11-.58.05l-.98-.17q.12-.78.44-1.37t.8-.98q.49-.4 1.11-.6.63-.19 1.35-.19.75 0 1.37.22.63.22 1.07.62.44.41.69.98t.25 1.26q0 .61-.18 1.12t-.47.97q-.3.46-.7.9-.39.43-.83.89l-2.44 2.49q.35-.1.7-.16.35-.05.66-.05m7.55-7.44-.38 2.25q.36-.07.69-.11.33-.03.64-.03.85 0 1.51.26.65.25 1.09.7t.67 1.05q.22.61.22 1.31 0 .86-.3 1.57t-.84 1.22-1.28.78q-.74.28-1.61.28-.51 0-.97-.11-.46-.1-.86-.28-.4-.17-.74-.4t-.61-.49l.57-.78q.18-.26.47-.26.19 0 .38.12l.45.27q.25.14.59.26t.82.12q.51 0 .9-.17.39-.16.65-.46.26-.29.39-.7t.13-.89q0-.89-.51-1.39t-1.52-.5q-.77 0-1.58.29l-1.16-.33.9-5.26h5.36v.78q0 .4-.25.65t-.84.25zm13.6 3.74q0 1.42-.3 2.46-.31 1.05-.84 1.73-.54.68-1.27 1.02-.73.33-1.58.33t-1.57-.33q-.72-.34-1.26-1.02-.53-.68-.83-1.73-.3-1.04-.3-2.46 0-1.43.3-2.47t.83-1.73q.54-.68 1.26-1.01t1.57-.33 1.58.33 1.27 1.01q.53.69.84 1.73.3 1.04.3 2.47m-1.91 0q0-1.18-.17-1.95-.18-.77-.47-1.23-.28-.46-.66-.64-.37-.19-.78-.19-.4 0-.77.19-.37.18-.65.64-.29.46-.46 1.23t-.17 1.95q0 1.17.17 1.95.17.77.46 1.23.28.46.65.64t.77.18q.41 0 .78-.18.38-.18.66-.64.29-.46.47-1.23.17-.78.17-1.95m13.82 2.94-.98.97-2.54-2.55-2.57 2.56-.98-.97 2.56-2.57-2.44-2.44.97-.98 2.45 2.45 2.43-2.44.99.98-2.44 2.44zm6.24-5.17-.98-.17q.12-.78.44-1.37t.81-.98q.48-.4 1.11-.6.62-.19 1.34-.19.75 0 1.36.21.6.21 1.03.59.42.38.65.89t.23 1.1q0 .52-.11.91-.12.4-.34.69t-.54.49q-.32.21-.73.34.98.31 1.46.94t.48 1.58q0 .81-.3 1.44-.3.62-.81 1.04t-1.18.64-1.42.22q-.82 0-1.43-.19t-1.06-.55q-.45-.37-.76-.9-.32-.53-.54-1.23l.82-.34q.32-.14.6-.07.28.06.41.3.13.27.3.52.16.26.38.45.23.2.53.33.3.12.72.12.48 0 .83-.15.35-.16.59-.4.23-.25.35-.56.12-.3.12-.61 0-.39-.09-.71-.08-.31-.34-.54-.26-.22-.75-.35-.5-.13-1.32-.13v-1.32q.68-.01 1.13-.13t.72-.33q.26-.21.37-.51.1-.3.1-.66 0-.77-.42-1.17-.43-.39-1.14-.39-.33 0-.61.09t-.5.26-.37.4q-.15.22-.23.49-.12.35-.33.46t-.58.05M154.27 15q0 1.42-.3 2.46-.31 1.05-.84 1.73-.54.68-1.27 1.02-.73.33-1.58.33t-1.57-.33q-.73-.34-1.26-1.02t-.83-1.73q-.3-1.04-.3-2.46 0-1.43.3-2.47t.83-1.73q.53-.68 1.26-1.01.72-.33 1.57-.33t1.58.33 1.27 1.01q.53.69.84 1.73.3 1.04.3 2.47m-1.91 0q0-1.18-.18-1.95-.17-.77-.46-1.23t-.66-.64q-.38-.19-.78-.19t-.77.19q-.37.18-.66.64-.28.46-.45 1.23t-.17 1.95q0 1.17.17 1.95.17.77.45 1.23.29.46.66.64t.77.18.78-.18q.37-.18.66-.64t.46-1.23q.18-.78.18-1.95"/></svg>